<svg xmlns="http://www.w3.org/2000/svg" viewBox="0 0 900 640" role="img" aria-labelledby="title desc">
  <title id="title">Monolith at sunset</title>
  <desc id="desc">A tall navy monolith beside a glowing sphere and long architectural shadows.</desc>
  <defs>
    <linearGradient id="paper" x1="0" x2="1" y1="0" y2="1">
      <stop offset="0" stop-color="#f4ecd9"/>
      <stop offset=".42" stop-color="#e4a38e"/>
      <stop offset="1" stop-color="#96aaa4"/>
    </linearGradient>
    <radialGradient id="sphere" cx="28%" cy="24%" r="72%">
      <stop offset="0" stop-color="#fff7c7"/>
      <stop offset=".38" stop-color="#d6ad54"/>
      <stop offset=".8" stop-color="#d96f57"/>
      <stop offset="1" stop-color="#182434"/>
    </radialGradient>
  </defs>
  <rect width="900" height="640" fill="url(#paper)"/>
  <path d="M104 572 392 168 492 572Z" fill="#182434" opacity=".12"/>
  <path d="M470 588 730 218 834 588Z" fill="#182434" opacity=".1"/>
  <circle cx="330" cy="238" r="154" fill="#182434" opacity=".16"/>
  <circle cx="306" cy="214" r="154" fill="url(#sphere)" stroke="#182434" stroke-width="7"/>
  <circle cx="246" cy="154" r="34" fill="#fff4c6"/>
  <rect x="524" y="154" width="82" height="376" fill="#182434"/>
  <rect x="606" y="166" width="35" height="365" fill="#d8c7a4"/>
  <path d="M665 530 830 530 750 302Z" fill="#182434"/>
  <path d="M750 302 830 530 720 452Z" fill="#f0dfc0"/>
  <path d="M720 452 830 530 676 530Z" fill="#d96f57"/>
  <g fill="#182434" font-family="Courier New, monospace" font-size="18">
    <text x="52" y="54">NOTES / MONOLITH-AT-SUNSET</text>
    <text x="650" y="86">CAPTURE 18:42</text>
  </g>
</svg>
